# xmcd
#
# Track frame offsets: 
#        150
#        16912
#        33920
#        50117
#        65672
#        82760
#        100295
#        119412
#        134035
#        147937
#        163427
#        181522
#        196047
#        230850
#
# Disc length: 4622 seconds
#
# Revision: 1
# Processed by: cddbd v1.5.1PL0 Copyright (c) Steve Scherf et al.
# Submitted via: ExactAudioCopy v0.95a5
#
DISCID=c5120c0e
DTITLE=Blue - All Rise
DYEAR=2001
DGENRE=Pop
TTITLE0=All Rise
TTITLE1=Too Close
TTITLE2=This Temptation
TTITLE3=If You Come Back
TTITLE4=Fly By
TTITLE5=Bounce
TTITLE6=Long Time
TTITLE7=Make It Happen
TTITLE8=Back To You
TTITLE9=Girl I'll Never Understand
TTITLE10=Back Somebody
TTITLE11=Best In Me
TTITLE12=All Rise (Blacksmith Rnb Club Rub)
TTITLE13=CD-Extra
EXTD=
EXTT0=
EXTT1=
EXTT2=
EXTT3=
EXTT4=
EXTT5=
EXTT6=
EXTT7=
EXTT8=
EXTT9=
EXTT10=
EXTT11=
EXTT12=
EXTT13=
PLAYORDER=
